inDegrees=no
num_controls=7
num_derivatives=13
num_iterations=176
num_multipliers=7
num_parameters=0
num_slacks=7
num_states=26
objective=5.541567
objective_accelerations=0.819579
objective_balance=0.042984
objective_effort=0.244355
objective_height=4.408218
objective_ligament=0.026430
solver_duration=2111.660236
status=Solve_Succeeded
success=true
DataType=double
version=3
OpenSimVersion=4.4-2022-07-23-0e9fedc
endheader
time	/jointset/ground_pelvis/pelvis_tilt/value	/jointset/ground_pelvis/pelvis_tx/value	/jointset/ground_pelvis/pelvis_ty/value	/jointset/hip_l/hip_flexion_l/value	/jointset/hip_l/hip_adduction_l/value	/jointset/hip_l/hip_rotation_l/value	/jointset/back/lumbar_extension/value	/jointset/patellofemoral_l/patellar_flexion_l/value	/jointset/knee_l/knee_flexion_l/value	/jointset/knee_l/knee_adduction_l/value	/jointset/knee_l/knee_rotation_l/value	/jointset/ankle_l/ankle_angle_l/value	/jointset/subtalar_l/subtalar_angle_l/value	/jointset/ground_pelvis/pelvis_tilt/speed	/jointset/ground_pelvis/pelvis_tx/speed	/jointset/ground_pelvis/pelvis_ty/speed	/jointset/hip_l/hip_flexion_l/speed	/jointset/hip_l/hip_adduction_l/speed	/jointset/hip_l/hip_rotation_l/speed	/jointset/back/lumbar_extension/speed	/jointset/patellofemoral_l/patellar_flexion_l/speed	/jointset/knee_l/knee_flexion_l/speed	/jointset/knee_l/knee_adduction_l/speed	/jointset/knee_l/knee_rotation_l/speed	/jointset/ankle_l/ankle_angle_l/speed	/jointset/subtalar_l/subtalar_angle_l/speed	/forceset/tau_hip_flexion_l	/forceset/tau_hip_adduction_l	/forceset/tau_hip_rotation_l	/forceset/tau_knee_flexion_l	/forceset/tau_ankle_angle_l	/forceset/tau_subtalar_angle_l	/forceset/tau_lumbar_extension	lambda_cid13_p0	lambda_cid13_p1	lambda_cid13_p2	lambda_cid13_p3	lambda_cid13_p4	lambda_cid13_p5	lambda_cid14_p0	/jointset/ground_pelvis/pelvis_tilt/accel	/jointset/ground_pelvis/pelvis_tx/accel	/jointset/ground_pelvis/pelvis_ty/accel	/jointset/hip_l/hip_flexion_l/accel	/jointset/hip_l/hip_adduction_l/accel	/jointset/hip_l/hip_rotation_l/accel	/jointset/back/lumbar_extension/accel	/jointset/patellofemoral_l/patellar_flexion_l/accel	/jointset/knee_l/knee_flexion_l/accel	/jointset/knee_l/knee_adduction_l/accel	/jointset/knee_l/knee_rotation_l/accel	/jointset/ankle_l/ankle_angle_l/accel	/jointset/subtalar_l/subtalar_angle_l/accel	gamma_cid13_p0	gamma_cid13_p1	gamma_cid13_p2	gamma_cid13_p3	gamma_cid13_p4	gamma_cid13_p5	gamma_cid14_p0
0.5	-0.4535114079875384	-0.05103935941426215	0.7572050091407301	1.271865522116533	-0.3670774247951017	-0.01431815939166997	-0.4126831889794642	0.8120625705103985	0.8120625705103943	-0.08137307986343195	-0.174532635068803	0.1038468026490937	0.0836410462913882	-1.39047790030872	-0.366509527364609	-0.5648054177245376	3.105051424344017	0.06269885703285205	0.5384110604378889	-0.2665000761034321	1.586574723669154	1.586574723669145	0.2067890652606461	-1.658721520398267e-05	-0.0004889457727887008	0.06133583081165524	-0.1826636941245728	-0.0004962179402149916	0.01192050315956717	-0.138488723651341	0.05337640542911173	0.01528975750480671	0.1600152462116016	-6.892372882805253	-5.490067031871319	0.6588273869478078	-5.538112708243078	-434.9609329281594	-70.29678894250075	-10.82959910263387	0.6339598185709417	0.707547986389807	-0.3912997955548342	-1.936530341712354	0.2538338651887653	-0.5694627571956699	1.72283839361413	-1.377256902278355	-1.377256902278348	-0.2748209051321097	0.05389115787802379	-0.2214392453606712	0.2187207920108949	-2.091808503712511e-07	-1.359700817722167e-06	1.016988971414998e-06	-1.912497609865629e-07	-6.293430410017534e-07	3.857954299257095e-07	-4.174961964205189e-07
0.51	-0.4673812472667089	-0.05466855389037056	0.7515388408536418	1.302812996428113	-0.3664399279699427	-0.008963727271403927	-0.4152636550107102	0.827856679882113	0.8278566798821226	-0.0793224074942951	-0.1745327344994393	0.1038302292129912	0.08426277437778051	-1.383300675893004	-0.3592898462860923	-0.5682950309126393	3.084018167126776	0.06477646220865385	0.5324297063405627	-0.2496053733486581	1.572017720832133	1.572017720832136	0.2033152131619546	-5.379526622975995e-06	-0.002834520239980958	0.06298094400090504	-0.1901210430391716	0.0002084946632597691	0.01134054357308316	-0.1386341337349991	0.05369624946957986	0.01615848708574636	0.1651115175418523	-6.953490863840641	-5.760167741581725	0.5916770399114621	-5.712729774623768	-439.0760941775347	-70.43791032135768	-10.17232596665867	0.7879430512440273	0.7350690244385547	-0.3079313032130625	-2.250577080658307	0.1811964052041258	-0.6196525661584206	1.670949735999498	-1.529255320139655	-1.529255320137894	-0.3884398917589674	-0.02534130396078505	-0.2424868464044755	0.1331696647913365	-1.866130950143223e-07	-1.277932714215049e-06	8.57196492487685e-07	-1.962888899534461e-07	-5.594125486004819e-07	3.945536794376402e-07	-3.831049441994181e-07
0.52	-0.4811736464420878	-0.05822437338452262	0.7458417485901172	1.333537367433734	-0.3657823605807399	-0.003670544858147349	-0.4176755413104907	0.8434983525563226	0.843498352556328	-0.07730742815207875	-0.1745327372288752	0.1037899259724155	0.08490010621254716	-1.374989879550404	-0.3518345309733381	-0.5709902130117527	3.060430763152403	0.0667129698415888	0.5261611190369436	-0.2327841298102657	1.556087384166086	1.556087384166101	0.1996504598824104	2.75302959933404e-06	-0.00523490666741231	0.06445658048652671	-0.197578391953789	0.0009132072667134148	0.01076058398647258	-0.1387795438186565	0.05401609351004387	0.01702721666666327	0.1702077888720882	-7.014166633020877	-6.033945841087551	0.5292253176140908	-5.899888071394377	-443.1903817123661	-70.64540315537963	-9.519349782933316	0.8606742039479028	0.7546748332373244	-0.2324135777571702	-2.447359693138618	0.2256143566153943	-0.6269093984542609	1.708146550337797	-1.651923668083388	-1.651923668083387	-0.3130011413026593	0.053276131406294	-0.2324016374084962	0.1848254512852755	-1.55118550305057e-07	-1.23728452267096e-06	5.878939074646651e-07	-2.152604984708558e-07	-4.719557216972845e-07	3.745537994424942e-07	-3.375478407366055e-07
0.53	-0.494877579601416	-0.06170452554572124	0.7401216816566578	1.364013641023796	-0.3651057411405458	0.00155800139352323	-0.4199195614089214	0.8589741761169859	0.858974176116988	-0.07532882231137362	-0.1745326948526176	0.1037255860384751	0.08555185551379529	-1.365618775067023	-0.3441607014432926	-0.572886880237041	3.034414233807173	0.06858793111677354	0.5195019249862002	-0.2160509803549512	1.538860146045779	1.538860146045787	0.1960504284273079	6.347441557044386e-06	-0.007631772877261473	0.06586862573860033	-0.2048778435329708	0.001396096417449561	0.01015103765594334	-0.1391944154296222	0.05472032241717232	0.01773709274681654	0.1751342446309746	-6.963655258464997	-6.246359134541149	0.4434628606799461	-6.158820930526884	-447.3606327538564	-70.77197924251173	-8.87185431592254	1.001980007853462	0.7789719412736845	-0.1479344822120369	-2.740309694668209	0.1651196864406975	-0.6926098359815491	1.651235571298847	-1.790638448346105	-1.790638448347107	-0.3867895660110371	-0.02587798575017778	-0.2431858729571112	0.1158367454269389	-1.43438617436332e-07	-1.202004646958371e-06	4.711435639291527e-07	-2.194774040537868e-07	-4.240686175498215e-07	3.905155738601114e-07	-3.182333225040728e-07
